<mxfile host="app.diagrams.net" modified="2023-07-19T12:03:33.943Z" agent="Mozilla/5.0 (Windows NT 10.0; Win64; x64) AppleWebKit/537.36 (KHTML, like Gecko) Chrome/114.0.0.0 Safari/537.36" etag="4V-8JS5kVLM3NX_Ao6cp" version="21.6.3" type="github">
  <diagram name="PÃ¡gina-1" id="2drw1vzUxO7C_IuxO7w9">
    <mxGraphModel dx="880" dy="444" grid="1" gridSize="10" guides="1" tooltips="1" connect="1" arrows="1" fold="1" page="1" pageScale="1" pageWidth="827" pageHeight="1169" math="0" shadow="0">
      <root>
        <mxCell id="0" />
        <mxCell id="1" parent="0" />
        <mxCell id="Qn-LusuDT2X-4bbPg42G-1" value="" style="outlineConnect=0;dashed=0;verticalLabelPosition=bottom;verticalAlign=top;align=center;html=1;shape=mxgraph.aws3.ec2;fillColor=#F58534;gradientColor=none;" vertex="1" parent="1">
          <mxGeometry x="720" y="613.5" width="76.5" height="93" as="geometry" />
        </mxCell>
        <mxCell id="Qn-LusuDT2X-4bbPg42G-8" style="edgeStyle=orthogonalEdgeStyle;rounded=0;orthogonalLoop=1;jettySize=auto;html=1;exitX=1;exitY=0.75;exitDx=0;exitDy=0;" edge="1" parent="1" source="Qn-LusuDT2X-4bbPg42G-2" target="Qn-LusuDT2X-4bbPg42G-5">
          <mxGeometry relative="1" as="geometry" />
        </mxCell>
        <mxCell id="Qn-LusuDT2X-4bbPg42G-2" value="" style="shape=actor;whiteSpace=wrap;html=1;" vertex="1" parent="1">
          <mxGeometry x="30" y="613.5" width="40" height="62" as="geometry" />
        </mxCell>
        <mxCell id="Qn-LusuDT2X-4bbPg42G-11" style="edgeStyle=orthogonalEdgeStyle;rounded=0;orthogonalLoop=1;jettySize=auto;html=1;exitX=0.75;exitY=1;exitDx=0;exitDy=0;" edge="1" parent="1" source="Qn-LusuDT2X-4bbPg42G-3" target="Qn-LusuDT2X-4bbPg42G-5">
          <mxGeometry relative="1" as="geometry">
            <mxPoint x="180" y="670" as="targetPoint" />
          </mxGeometry>
        </mxCell>
        <mxCell id="Qn-LusuDT2X-4bbPg42G-3" value="" style="shape=actor;whiteSpace=wrap;html=1;" vertex="1" parent="1">
          <mxGeometry x="30" y="520" width="40" height="60" as="geometry" />
        </mxCell>
        <mxCell id="Qn-LusuDT2X-4bbPg42G-7" style="edgeStyle=orthogonalEdgeStyle;rounded=0;orthogonalLoop=1;jettySize=auto;html=1;exitX=1;exitY=0.75;exitDx=0;exitDy=0;" edge="1" parent="1" source="Qn-LusuDT2X-4bbPg42G-4" target="Qn-LusuDT2X-4bbPg42G-5">
          <mxGeometry relative="1" as="geometry" />
        </mxCell>
        <mxCell id="Qn-LusuDT2X-4bbPg42G-4" value="" style="shape=actor;whiteSpace=wrap;html=1;" vertex="1" parent="1">
          <mxGeometry x="30" y="720" width="40" height="60" as="geometry" />
        </mxCell>
        <mxCell id="Qn-LusuDT2X-4bbPg42G-13" style="edgeStyle=orthogonalEdgeStyle;rounded=0;orthogonalLoop=1;jettySize=auto;html=1;exitX=1;exitY=0.5;exitDx=0;exitDy=0;" edge="1" parent="1" source="Qn-LusuDT2X-4bbPg42G-5" target="Qn-LusuDT2X-4bbPg42G-1">
          <mxGeometry relative="1" as="geometry" />
        </mxCell>
        <mxCell id="Qn-LusuDT2X-4bbPg42G-5" value="" style="shape=image;verticalLabelPosition=bottom;labelBackgroundColor=default;verticalAlign=top;aspect=fixed;imageAspect=0;image=data:image/png,iVBORw0KGgoAAAANSUhEUgAAAFEAAABKCAYAAADDnrhuAAAAAXNSR0IArs4c6QAAAARnQU1BAACxjwv8YQUAAAAJcEhZcwAADsMAAA7DAcdvqGQAABR1SURBVHhe7ZxpkBVVlsdP7VXsO4ogylKI0CiGOu4LYqANbgODwxd1YNTRCJF1GhR1IlBQGhu01VAJMIBQPrS2NqOo2GooRYnthEqD3YgFKjuIsgjUAlVvzu+8d4qsNF9VFlRBzfLHa+bLvHnvuf97zrnn3rxZGQmFNEEgVlVllWRlZ6WuNF00KRKNuKoqPRHJzMq0axCZkZEhGZkZ9jtRlRJXf3LdTlPHk4UmqYmIVFlZaccjR44YsfZbCUQzc3JyJDMzU7KyspIE/18g0atI19iysjIpLS2Vn3/+Wfbv32/Hn376ya5x5P6hQ4esnHbt2lkqKCiQ1q1bS9u2baVly5bSokULad68ueTl5Vk9ddXZkGh0EikeTUKLMFFvYHl5uezevVt27dol69atk2+//Va++uorS1yHPLQNOBFm6gquUwakdT2tq/Q5q4/07NlTzj77bOnRo4ecdtpp0qlTJ8nJVo3VOsnrZTUGTpgmmi9TLtCyDRs2yNq1a6W4uFi+/PJL+f777+XgwYNmuhCWm5trGpWdnW3PAiffE78PHz5snYGpk9DIrl27ygUXXCBXX3219Dizh/Tr38/KwvQbi8gTRiLmCHFFRUXy/vvvy5o1a8x0uYePgzhIpLFcgxTgvwEkQKxrpMNJ5Dp5KAdzLywslKFDh8pFF10k55xzjpl/Y6BRSKRI15yKigrTvOXLl8uyZctk9erVUqa+DjLycvNMO8kHCWhrho/KKaKcNBKEQjj5+c2RBDhSJ1rHPfwpmsq1/v37y/XXXy833nijnHXWWdUDkrsFB9eOBY1CIsTReEz3rbfekldffVU+++wzM1nExFeZvBE1J1KhjCOdeMEGp2s8JCELJp+fny8XX3yxETl48GDzm1mZWVKVOOpng6gPoY1DYnmFbN+xXZ599lnTvu3bt5tQJqhWl5mhA0wqbxgNSaJf50g5EIrfHDJkiNx+++1y4YUX2j00F9nilBmFRiFx1apV8sQTT8iKFSvsNybowlqsFxAwXH1Dkgi8XgduA3kGDBggY8eOlWuvvdbMG3g51BnWzNrQICQiGAKQMN9HHnlE1q9fb4NFQX6BVB45rLlSDdXqamu0C5NIn6UGaisL0DxvIsSQGHhIffr0kQkTJpi/bNasmeUB5A+XW1s9DUIiPU0lr7/+ujz44IPy3XffmYPHD+EbKysg8SiCAvlZWIiq2rkxxCEwiHB+gnjiykmTJskNN9xgI7qbdV3PBtEgJOJrXnnlFTPhLVu2GIEIY6MgGdSEg9U0FRKxIEbxzp07y0MPPSTDhw83U6fjw+bc6CQS9919992yc+dOm34FYzvT0jQkhsUKCtLYJLr1QNjevXvl1FNPleeff16uuOIKuxZGo5CI9kHW559/LqNHj7ZYkGkYJsE9EuacpT26Q0dnkJOTK610dCzIy7f70JaJcCqBk+bCRJHoolKva0pQfEIZrABtsrhT73GNUMsHF0Zn7juJDsKv3r17y+LFi6Vfv36pq0fR4CT6Iz/88IPcc889polcowEkBHcSCXeuuOwyaduurWzc+K38XefGBw4cMBJatmhpJCe0QZRoyckMjdJheKOC4vs1Bg3MFBkY3BhAzjvvPJshrVy50u5BZBDk+/HHH+Waa66RF154Qbp06RJZdhSOWRMRZPr06fLiiy9aZe5HSJDIEW3o1bOnLP3TUlsQqNJ8mzdtkjfeeENe/cMf5BsdwUGuaqhKqSTyLwnIpFzqcfAbDYIAGh3USEB9+/btM1kIpkeOHCl33nmnnfPsxo0bZdq0afL222+b22FG44B4ntuzZ488/PDDMn78+BojdoOQ6NkojMqXLl1qoczWrVutMq57HtdCen7YsGHy0vwFkqON9oVVmNq/f5/88bXXZPGixfLVmrVysPSQkeMjenZerv1m2QuivBHUjSZjopxDHPWReO7MM8+UUaNGWQzoRLtsWA5a9vTTT1s9PO8ye+dQNs8wSWDODcgT7KwwYpFIFlthVhIoDOLGjRtnZsxvhEdQFxa/iID4malTp8rkyZNTJf0Sf//b32TxwkWyomiFdO9+hvT7VX/T2m7dukmHDh1svZDycBNOIEtlEELatm2blJSUmJZhsmgeCw/IgVxBQPRr2nHI7lNB8jkFLj9ayUrQkiVLrBPdLaRDvTSRRIHz58+XOXPmWINcQ4JACCpFS2bNmiW33XZb6k4KgRqtek27f9ytg04ryc3PS91JwutFO/x3GL5o26pVq2riqDtMItfeffddiyQwW0zay3c4kdyfN2+e3HHHHdWDUjptTK+jAVAoAgB6/L333jMnnK5Q8nMPgSKXn+A9kPB/7VXrctSEHQheeSS5xAW8sS4LyRuHRqGx2Vka2KfuQSB5g0AmOhezrU125Eb7mfvjNrhGXeHyHLFIBFRKj3/88ce2+kwlXngYCOr33O8EUxDe8yTy85tEfaxK02D3a36d3yTOuYZmexn8duI59+vhBPwYBtfbtGljy3YMQl5PuvyxSDRBFdu3bbfVaHwSoFC/FwTXIRyz3qSjcRhhYZyUoPlRLsJHgXter8mgvtpIVdI54j/9XjX0FM3GBSFbWIYwuI+iPPXUU+Y/o9rpiK2JYN3X60wLaZwLEVU4mgCBJFZ0yBtMJwUq5v6f99vqOn4dFxCGdw6JzsCivvjiC1sLrQ2xSWSkRb3RLDfXdMAsMUPIROCmAuRCq3AxYYSVAbnRaI6M6LUhNomENbxUQghHlBYCCCQfocpdd92VupqE93RDoK6ygvfodEZjVrVZjIUc3Aca5/Dygs+hMJ988onNr9MpTiwS0SjWB9FE8z1pfJWDHqTXCXov0ylfUwDEIBcEEnLRwRBZm4vhPhMJYlHMmjZFIbYm8n6YZX435WBvOVwYYiyC5TFjxtiihCPqmcaGa5YniOR1KhoJScGRPJi4zhHtZSrJ28mg1gYRi0Riwq+//toKhig/Bnsw+JvRj2X37t2718jTFAAxLHsNPHegjb5oF2bN9TCwOBIDJLOidG2JRSKaxQ4FYGRpxZlaHom1QpKfV5SWmUA33XSTHd2JRwl5MoAcaFTvwt629FUtV6odnlhdgpzD5TqS5+ZZ+4OLIUHEIhGnyqhMr2DOzAyCmgc4Z5WGI+HDVVddZfmjQommAKyEVwNoIh1dVZU0a2BxZ2bSdCtVCyGd2BgeohCLRHqAFRnUPl2I4IBEzAUCEZCebipaGATzbPw1ronBg4giCmbuOcnVbziIQiwSvbcgyDQxMLNwcI9VarTxlFNOMeIgkutNEWgXgwztYvGisrLmyIvcGRlJeqp0pkOeUk1RiEUijvWwaiCvnTLwfapYNTQMP6LXk9pXKblq7jbN0l6uTWtPNFxmUtLn6WidkyvN8vLVRWnr1Iyr1zwViURgLq+/y9TfRyEWiTURrVnWcyoAL+fdd3AtXVhwskHnVlQcnTioN0+dJQGBwEgMEBuFepEYruiXSFZmCxSpepsqicSIZWXlJiadnc7tQGJdiEUixWh/mJZVaYoClSXUfBm58R++17qpAf+Om2GALNV4Vh25eqPk9pZkO5OJ/UKMzH4d4AKiEItEfB0aZSEMI67y6JVpF/L/JPS0QEMaBP1h5057rinBCcSU9+3dp/HvT6aB+PzqdgVSeWlSU/H52dk5kq/BeRRitTJbh/88Jcf8Xi3a5SZRpr28oqjIztOZyYkGcqBVdCzRxabNm2Xzps12Lcq6IBzFMeXRc1bomQJGIRaJ7Ce0oFkFMe2qw0zLy8vko48+alLmjCws2iI/2lhS8o2tTEESI3NWanOpA+2E7OzsLKlMkciL/yjEIrFFyxbSqXOn5Iv11EhlPRvQMiMslbLUL/71r6tl5/YdyXuarTrZlZMElZfV7W1bt9niMkTh55Adz4e78sSIDHkZev+w5uus7W/dpk2qoJqIRWL79u11rllohR/RXjTfqNc9VQOGNDXXGUBJyQZ55513kuQ2GagsKvua1auluGil5KqbMgIhTgkLtok2ormquqa53U4/XV1azTeRjlgkduzY0fY6e2V1EYOJMEIvWDBftqjfaTpI2K41XpuyRoicwbYELQs1wZyJJRlQzjn33Br3g4hFIvNKPm1gOkevxLHJHBWA71N4R32iQCODKQw69sMPP5Q333yzzjawKf/wkeRmgdatW9nmeWt7BGKRCM444wzbLeVzaAfnlfxWoXDa/LaZi95j4WLJkldk4aKFelMz6H/MUSkjGVYky/FGR6W48LzBZ7Eal/ewBtfFK4vlqblzbWkvX6d6QS3kvIZWamIXW3l5hfrDU6Rv376mmVGIRSKFQyK9Ea4MqMhGEubBAsURdd6MeC1atLRV4ZkzZ8qC+QuqQwyeT/qgZMO9zHC59UU1gVqPdxANZ5F4pRI4ceIEKdmwIbl3qA5VrDKtS5Zx7eDBtliRTr5YJKLGVMz+FEz60MGjqxkU3Ex9BlrHp2RoWL5WaJ+DKVHIsV+JfGjagzLlN7+xXWE8g4vgCJnBdNxItttAh2GObGAa8U8jbPdGS400WNrKrOMTYGRh90NBQb78y+jRqavRiG3O9DArwT7ABLFn7x5p26at9D27r45i3WTnrl0mACECZLKkVHqoVGb/7kkZesMwaxSLvNazWpRrDXBtagi8/PLL9i6FfeRoXovm7L2BoOQspTbQAWgwO8NYwK0NsTY0oYn0DBU/88wzMud3c6Ss9JAJhPmChQsXypVXXml5NpSUyPRHH5X3li+39xiYub1GVb90SJ8jTGLPILu42FTJ+xj20iAKAS0NINUF8jMHZjEB38fCB2/l2PrBa07ei2CGLMAiZ1WQOJU93HR+07GZKi/nrEa9vWyZ/IMS6RutrONDqNfWOtwI24sfeOAB+a+//MUcb54KB8n4y9mzZ0uvPoVm+oyET8x8XJ7+/e/NvJPvosskV88hkVViGg/BNJRV5oEDB9rmeZbt8WXeQbXh008/tWfYpYD/pRPpcGRmluEdYk0PNjVEIud0BPK0VNK3bN0i11w9SJb+51I1/ZrbW8KIPbBY4KngQ8PrhgyxRietMfmBY1HxStOq+fPmyYH96kvyC2TchPHyr2PGqFmUmn9sVtCsWni0g9cI7P+DMEilIxjAICEOgQDCkcU/7eUc8tBsyqBs5A8SFgXy0JmQyG4PYsMpU6eavJWHazf9rP9QpM7TwgXAr/ACh4n4Wp02bdJAmpVsGs3c+oBWvvzd5dKly6ky4FcDpLnmw5+gveu/WW/LS7bAqQKjvQiO0BBI58yYMaN6Uyd1RvV6EORB6yEOM8aHQQTyuAsiAdtgXwuY3kE6Ld2rPn7UP4+Su+/5N8nSQQgmuW/5IsqJrYnJk2QaoA0e/o/DTYv8j10gNBrAyEe/EGgzVz5dp0vjxo+3QQn/RdzlTh1z5hpk8HaQ510D6yIwCJw/H41TFmWTeN7MWI+UzzSuNkD2QXVBDIjs2L333nutg22JrA5ZYpEYhV8P/bWZr4ULqp32xaYS2a5de1sxnjlzhu3CoiHkmz79Ubn00kvtKwKEAxwJeglk8YdoYH1B47EMtoXQWDoTUG8N1EEiC7AV2gkoxP333y+F6tsTqiAMMnWRWK/txtXgXNOXOpGfpuEDTp2Vm8pKPtZmx30yhFi4cFH1+2fCnZL16+WTVatky7atFldihphvr1695PzzzzfNrkvgMMwt6L9Zv51lewmdRHyhmzKg1BombU042qYjKjufi4y8daTMePxxC9loo5kzwXvq0Sj5jplEi+20vA8++EAmTZpsf4IgNzfH/B7aiX8aOnSYPPnkbCNKa7dlKGRgdKaxNBRtRDDXnPqS6ETxNdRjjz1mIywIkwjSkYifJijnayrK6KcDnBGoimFT2FRbLW+EfLHNmYerE76G0VrPB6mpTv73ydKmbRt7Z0GPHVItI8+f3/+zLFq82OJDAFGYPt+tMFIzqjt5MfvyF0AeyuB5SCP5eRjU4EkZNS1j8om8rNLcN3asLfmBLEZ1CESuOvo1NolhuPAc+bCQD2jwaQwWjNRcx9HzsRDfjrCrzLWOhGBOnF+PavixIG6HUB+ai0++7777zGfbvDolY9xyYoU4tYHKMB0+/WLxlg/FCbQZZQk3II8Qh9Ga2Qqmnq/zUTdlfKNPASHfNbM+4Fn8MpvyvSO8HO45gufko25iU76euu6666oJNFU9mrUGgmU4YvvEOMCvMIPgOxHeX7ADH6CR+EB8I9M9FjEQGHMmpGDr3sSJE20Uh/ggooQOAvHJw+cSj+pUM+gT3S8GE3UiCx3Nhk8+GmfwY4T3svCBFs/GBSQ2JFTAhM5bE5dccklCBU4okYlu3bolVEsTHTp0SCiRCZ2tJHSOnFAiLSlxiZdeeimhDdOwrKpGqgueR+f0Ce0cq4fUuXPnhIY9ljjnXseOHa1+6r711lsTxcXFCe14e/54cMw+MR0wI3qYBQm2GzMbYWHAzZf7HPGfBNdoK6EO94OrOQ0BbZ9pH9qJ6TK3pq4pU6bI3LlzLazCIo4XDU4iwHzZbswnaYsWLbL5LQ2gUZDlsxJiSRpHOISJHYs/rA10FOaJ6VIHf9JlwYIFNogwd6c+6oXo40GjkIjwkIWWjRgxwv64Bn4SjcBvIrgvDuCj8IMcceY0OpjqAnnoDMpkYKJce0eu2Lx5s1kBvphAnM/pBg0aZP4PGbEIZDjezmsUEgECQg5CMphgPnyVevPNNxthDCZoIcRCAKERmnqsgEzKwwpY0WEtEAtgwOIdM1+fIlOcjqk3cIwnCkpWQs3KHLo2LqE+yZx+YWFhoqioKKEalcoZD5SlxFm5a9euTVx++eUJJS5xyy23JJ577rmEuhDLx+Dj+Uj89gGpIdCgIU59QLU7duywDeXEl3zszY4yX7eMCxcfDeOdMhrN8hsmbi5CgbkG/Z5rY0Np5UklMQyuHa9/qk9zGorERvOJx4JG8VcnAE2KxP+pOGkknmyta8j6T5pP/N+E/zfn44bIfwPwO3hDmeRIQAAAAABJRU5ErkJggg==;" vertex="1" parent="1">
          <mxGeometry x="373" y="623" width="81" height="74" as="geometry" />
        </mxCell>
      </root>
    </mxGraphModel>
  </diagram>
</mxfile>
